<svg width="37" height="35" viewBox="0 0 37 35" fill="none" xmlns="http://www.w3.org/2000/svg">
<g id="Group 633133">
<path id="Vector" d="M25.0712 29.3872C24.9745 29.3927 24.852 29.3988 24.7117 29.4022C24.2712 29.4117 23.941 29.3906 23.6033 29.3702C23.2655 29.3498 22.9551 29.3293 22.5493 29.2681C22.2892 29.2329 22.0315 29.1815 21.7779 29.1142C21.4145 29.0114 21.0616 28.8746 20.7239 28.7057C20.3889 28.5448 20.0629 28.3657 19.7475 28.1692C19.1545 27.7913 17.9896 27.0614 17.2025 25.665C16.6252 24.6372 16.3407 23.4708 16.38 22.2927L27.4549 22.2668C27.0559 16.4461 22.183 11.8496 16.2255 11.8496C10.0078 11.8496 4.96674 16.8601 4.96674 23.0409C4.96674 29.2218 10.0051 34.2315 16.2255 34.2315C18.0458 34.2335 19.8396 33.7941 21.4529 32.9508C23.0662 32.1076 24.451 30.8857 25.4886 29.3899L25.0712 29.3872Z" fill="#FCB415"/>
<path id="Vector_2" d="M31.602 34.5559L26.5371 30.8554C26.4879 30.8193 26.4462 30.7738 26.4146 30.7215C26.383 30.6693 26.3619 30.6113 26.3527 30.5509C26.3435 30.4905 26.3462 30.4289 26.3608 30.3696C26.3754 30.3103 26.4015 30.2544 26.4377 30.2052L26.7414 29.7967C26.8155 29.6974 26.9257 29.6314 27.0481 29.6128C27.1706 29.5942 27.2954 29.6245 27.3957 29.6973L32.4606 33.3978C32.56 33.4708 32.6263 33.5803 32.6451 33.7022C32.6638 33.8241 32.6335 33.9484 32.5607 34.048L32.2563 34.4565C32.1821 34.5556 32.0719 34.6216 31.9495 34.6402C31.8271 34.6588 31.7023 34.6285 31.602 34.5559Z" fill="#FCB415"/>
<path id="Vector_3" d="M34.5759 29.5298L28.5843 27.6513C28.5259 27.6331 28.4717 27.6036 28.4247 27.5644C28.3777 27.5252 28.339 27.4771 28.3106 27.4229C28.2822 27.3687 28.2647 27.3095 28.2593 27.2486C28.2538 27.1876 28.2603 27.1262 28.2786 27.0678L28.4332 26.581C28.4711 26.4632 28.5541 26.3652 28.6641 26.3083C28.774 26.2514 28.902 26.2403 29.0201 26.2774L35.0116 28.1559C35.1294 28.1928 35.2278 28.275 35.2851 28.3844C35.3424 28.4938 35.354 28.6214 35.3173 28.7394L35.1628 29.2262C35.1245 29.3438 35.0415 29.4416 34.9316 29.4984C34.8218 29.5552 34.694 29.5665 34.5759 29.5298Z" fill="#FCB415"/>
<path id="Vector_4" d="M36.2069 22.5468L29.0898 22.353C29.0616 22.3522 29.0381 22.3744 29.0374 22.4026L29.0009 23.7407C29.0002 23.7689 29.0224 23.7924 29.0506 23.7931L36.1677 23.9869C36.1959 23.9877 36.2194 23.9655 36.2201 23.9373L36.2566 22.5992C36.2573 22.571 36.2351 22.5475 36.2069 22.5468Z" fill="#FCB415"/>
<path id="Vector_5" d="M28.187 9.8609L31.6485 8.08045L16.4108 0.193359L0.77417 8.23637L8.62722 12.3011C10.2797 10.1904 13.4811 9.23723 16.2113 9.23723C18.8837 9.23723 21.8148 10.2517 23.4652 12.2895L27.0874 10.4267" fill="#FCB415"/>
<path id="Vector_6" d="M28.1835 8.74219C27.9902 8.74219 27.8322 9.18543 27.8322 9.72671V10.6404C27.8322 11.1817 27.9902 11.625 28.1835 11.625H28.8501C29.0428 11.625 29.2007 11.1817 29.2007 10.6404V9.73012C29.2007 9.18883 29.0428 8.74559 28.8501 8.74559L28.1835 8.74219Z" fill="#FCB415"/>
<path id="Vector_7" d="M27.833 11.9697L27.5157 14.1076H29.5433L29.1818 11.9697H27.833Z" fill="#FCB415"/>
</g>
</svg>
